# xmcd
#
# Track frame offsets: 
#        150
#        6910
#        23583
#        39143
#        65447
#        79025
#        99772
#        112470
#        136794
#        155327
#        176869
#        209138
#
# Disc length: 3146 seconds
#
# Revision: 0
# Processed by: cddbd v1.5.1PL2 Copyright (c) Steve Scherf et al.
# Submitted via: ExactAudioCopy v0.95b4
#
DISCID=980c480c
DTITLE=Jeff Gibble Group - 2000-04-01 - The Tourist Inn - Hellam PA
DYEAR=2000
DGENRE=Progressive Rock
TTITLE0=Introduction
TTITLE1=Steppin' Out
TTITLE2=The Royal Road
TTITLE3=Are You Experienced
TTITLE4=Hexed
TTITLE5=Winter Sun
TTITLE6=Throw The Horse Over The Fence Some Hay
TTITLE7=Lifetime
TTITLE8=Tomorrow Never Knows
TTITLE9=Emerald
TTITLE10=Sold Me Out Again
TTITLE11=More Joe, No Cow
EXTD=
EXTT0=
EXTT1=
EXTT2=
EXTT3=
EXTT4=
EXTT5=
EXTT6=
EXTT7=
EXTT8=
EXTT9=
EXTT10=
EXTT11=
PLAYORDER=
